<svg width="74" height="10" viewBox="0 0 74 10" fill="none" xmlns="http://www.w3.org/2000/svg">
<path d="M4.944 5.484H1.896V9H0.924V0.912H5.364V1.764H1.896V4.632H4.944V5.484ZM8.60709 8.268C9.03909 8.268 9.38309 8.148 9.63909 7.908C9.89509 7.66 10.0231 7.348 10.0231 6.972V6.192H8.96709C8.45509 6.192 8.07109 6.292 7.81509 6.492C7.55909 6.692 7.43109 6.944 7.43109 7.248C7.43109 7.552 7.53109 7.8 7.73109 7.992C7.93109 8.176 8.22309 8.268 8.60709 8.268ZM10.0351 8.28C9.72309 8.8 9.15509 9.06 8.33109 9.06C7.76309 9.06 7.30309 8.892 6.95109 8.556C6.60709 8.22 6.43509 7.796 6.43509 7.284C6.43509 6.7 6.65509 6.248 7.09509 5.928C7.54309 5.6 8.15109 5.436 8.91909 5.436H10.0231V5.124C10.0231 4.644 9.91509 4.284 9.69909 4.044C9.48309 3.796 9.11909 3.672 8.60709 3.672C7.95909 3.672 7.38309 3.844 6.87909 4.188V3.24C7.33509 2.96 7.93509 2.82 8.67909 2.82C10.2071 2.82 10.9711 3.596 10.9711 5.148V9H10.0351V8.28ZM15.3653 9H14.2013L12.0773 2.916H13.0613L13.9013 5.484L14.7893 8.256C14.8613 7.912 15.1613 6.988 15.6893 5.484L16.5533 2.916H17.5373L15.3653 9ZM24.0639 5.976C24.0639 6.88 23.8079 7.628 23.2959 8.22C22.7839 8.812 22.0799 9.108 21.1839 9.108C20.3119 9.108 19.6199 8.816 19.1079 8.232C18.6039 7.64 18.3519 6.896 18.3519 6C18.3519 5.096 18.6119 4.344 19.1319 3.744C19.6599 3.136 20.3439 2.832 21.1839 2.832C22.1039 2.832 22.8119 3.128 23.3079 3.72C23.8119 4.312 24.0639 5.064 24.0639 5.976ZM19.3359 5.988C19.3359 6.62 19.5039 7.16 19.8399 7.608C20.1759 8.048 20.6239 8.268 21.1839 8.268C21.7919 8.268 22.2599 8.052 22.5879 7.62C22.9159 7.18 23.0799 6.636 23.0799 5.988C23.0799 5.316 22.9239 4.764 22.6119 4.332C22.2999 3.892 21.8239 3.672 21.1839 3.672C20.6079 3.672 20.1559 3.896 19.8279 4.344C19.4999 4.792 19.3359 5.34 19.3359 5.988ZM26.3862 9H25.4382L25.4502 2.916H26.3862V3.984C26.7062 3.232 27.2582 2.856 28.0422 2.856C28.1862 2.856 28.2982 2.864 28.3782 2.88V3.816C28.2102 3.76 28.0382 3.732 27.8622 3.732C27.4382 3.732 27.0862 3.928 26.8062 4.32C26.5262 4.712 26.3862 5.164 26.3862 5.676V9ZM30.3603 9H29.4123V2.916H30.3603V9ZM30.3243 0.564C30.4443 0.684 30.5043 0.832 30.5043 1.008C30.5043 1.184 30.4443 1.332 30.3243 1.452C30.2043 1.564 30.0563 1.62 29.8803 1.62C29.7043 1.62 29.5563 1.564 29.4363 1.452C29.3243 1.332 29.2683 1.184 29.2683 1.008C29.2683 0.832 29.3243 0.684 29.4363 0.564C29.5563 0.444 29.7043 0.383999 29.8803 0.383999C30.0563 0.383999 30.2043 0.444 30.3243 0.564ZM35.2131 8.844C34.9491 8.988 34.6531 9.06 34.3251 9.06C33.1251 9.06 32.5251 8.448 32.5251 7.224V3.684H31.5531V2.916H32.5251V1.404H33.4731V2.916H35.1531V3.684H33.4731V7.248C33.4731 7.896 33.7771 8.22 34.3851 8.22C34.6971 8.22 34.9731 8.128 35.2131 7.944V8.844ZM41.0348 8.688C40.5628 8.936 39.9868 9.06 39.3068 9.06C38.3868 9.06 37.6428 8.78 37.0748 8.22C36.5148 7.652 36.2348 6.904 36.2348 5.976C36.2348 5.008 36.4868 4.244 36.9908 3.684C37.4948 3.124 38.1428 2.844 38.9348 2.844C39.6948 2.844 40.2988 3.088 40.7468 3.576C41.1948 4.064 41.4188 4.756 41.4188 5.652C41.4188 5.908 41.3988 6.144 41.3588 6.36H37.2068C37.2788 6.96 37.5068 7.42 37.8908 7.74C38.2748 8.06 38.7788 8.22 39.4028 8.22C40.0828 8.22 40.6268 8.08 41.0348 7.8V8.688ZM38.9348 3.672C38.4788 3.672 38.0908 3.836 37.7708 4.164C37.4508 4.492 37.2628 4.96 37.2068 5.568H40.4708V5.328C40.4708 4.824 40.3348 4.424 40.0628 4.128C39.7908 3.824 39.4148 3.672 38.9348 3.672Z" fill="#FE900F"/>
<path d="M45.1323 6.024H43.8843V9H42.9123V0.912H45.0363C45.9723 0.912 46.7083 1.156 47.2443 1.644C47.7883 2.124 48.0603 2.748 48.0603 3.516C48.0603 4.236 47.7923 4.836 47.2563 5.316C46.7203 5.788 46.0123 6.024 45.1323 6.024ZM45.0483 1.74H43.8843V5.196H45.1323C45.7403 5.196 46.2163 5.04 46.5603 4.728C46.9043 4.408 47.0763 4.004 47.0763 3.516C47.0763 2.972 46.9003 2.54 46.5483 2.22C46.1963 1.9 45.6963 1.74 45.0483 1.74ZM50.3993 9H49.4513V0.516H50.3993V9ZM54.0641 8.268C54.4961 8.268 54.8401 8.148 55.0961 7.908C55.3521 7.66 55.4801 7.348 55.4801 6.972V6.192H54.4241C53.9121 6.192 53.5281 6.292 53.2721 6.492C53.0161 6.692 52.8881 6.944 52.8881 7.248C52.8881 7.552 52.9881 7.8 53.1881 7.992C53.3881 8.176 53.6801 8.268 54.0641 8.268ZM55.4921 8.28C55.1801 8.8 54.6121 9.06 53.7881 9.06C53.2201 9.06 52.7601 8.892 52.4081 8.556C52.0641 8.22 51.8921 7.796 51.8921 7.284C51.8921 6.7 52.1121 6.248 52.5521 5.928C53.0001 5.6 53.6081 5.436 54.3761 5.436H55.4801V5.124C55.4801 4.644 55.3721 4.284 55.1561 4.044C54.9401 3.796 54.5761 3.672 54.0641 3.672C53.4161 3.672 52.8401 3.844 52.3361 4.188V3.24C52.7921 2.96 53.3921 2.82 54.1361 2.82C55.6641 2.82 56.4281 3.596 56.4281 5.148V9H55.4921V8.28ZM62.2984 8.784C61.9144 9.016 61.4424 9.132 60.8824 9.132C59.9224 9.132 59.1584 8.828 58.5904 8.22C58.0304 7.604 57.7504 6.856 57.7504 5.976C57.7504 5.112 58.0304 4.368 58.5904 3.744C59.1584 3.12 59.9304 2.808 60.9064 2.808C61.4264 2.808 61.8904 2.92 62.2984 3.144V4.044C61.9304 3.796 61.4984 3.672 61.0024 3.672C60.3144 3.672 59.7624 3.896 59.3464 4.344C58.9384 4.784 58.7344 5.332 58.7344 5.988C58.7424 6.644 58.9424 7.192 59.3344 7.632C59.7264 8.064 60.2824 8.28 61.0024 8.28C61.4664 8.28 61.8984 8.148 62.2984 7.884V8.784ZM68.1988 8.688C67.7268 8.936 67.1508 9.06 66.4708 9.06C65.5508 9.06 64.8068 8.78 64.2388 8.22C63.6788 7.652 63.3988 6.904 63.3988 5.976C63.3988 5.008 63.6508 4.244 64.1548 3.684C64.6588 3.124 65.3068 2.844 66.0988 2.844C66.8588 2.844 67.4628 3.088 67.9108 3.576C68.3588 4.064 68.5828 4.756 68.5828 5.652C68.5828 5.908 68.5628 6.144 68.5228 6.36H64.3708C64.4428 6.96 64.6708 7.42 65.0548 7.74C65.4388 8.06 65.9428 8.22 66.5668 8.22C67.2468 8.22 67.7908 8.08 68.1988 7.8V8.688ZM66.0988 3.672C65.6428 3.672 65.2548 3.836 64.9348 4.164C64.6148 4.492 64.4268 4.96 64.3708 5.568H67.6348V5.328C67.6348 4.824 67.4988 4.424 67.2268 4.128C66.9548 3.824 66.5788 3.672 66.0988 3.672ZM73.6883 7.38C73.6883 7.9 73.5043 8.312 73.1363 8.616C72.7763 8.92 72.2803 9.072 71.6483 9.072C70.9123 9.072 70.3163 8.948 69.8603 8.7V7.776C70.3963 8.096 70.9723 8.256 71.5883 8.256C71.9563 8.256 72.2363 8.184 72.4283 8.04C72.6203 7.896 72.7163 7.7 72.7163 7.452C72.7163 7.164 72.6083 6.94 72.3923 6.78C72.1843 6.62 71.8323 6.44 71.3363 6.24C70.8803 6.064 70.5123 5.844 70.2323 5.58C69.9603 5.316 69.8243 4.96 69.8243 4.512C69.8243 4.008 70.0123 3.608 70.3883 3.312C70.7723 3.008 71.2483 2.856 71.8163 2.856C72.4483 2.856 72.9563 2.944 73.3403 3.12V4.02C72.9723 3.796 72.4683 3.684 71.8283 3.684C71.5083 3.684 71.2523 3.76 71.0603 3.912C70.8763 4.056 70.7843 4.244 70.7843 4.476C70.7843 4.62 70.8123 4.748 70.8683 4.86C70.9243 4.964 71.0323 5.068 71.1923 5.172C71.3603 5.276 71.4803 5.348 71.5523 5.388C71.6323 5.42 71.8003 5.492 72.0563 5.604C72.5683 5.812 72.9683 6.048 73.2563 6.312C73.5443 6.576 73.6883 6.932 73.6883 7.38Z" fill="#82350A"/>
</svg>
